# Blender v2.77 (sub 0) OBJ File: ''
# www.blender.org
mtllib bordure.mtl
o Cube.001
v 1.965389 -6.266346 -0.458464
v 1.965389 12.163693 -0.458467
v 2.923613 12.163692 -0.458467
v 2.923612 -6.266350 -0.458464
v 1.965389 -6.266341 4.654266
v 2.923612 -6.266347 4.654266
v 2.923613 12.163690 4.654263
v 1.965389 12.163699 4.654263
vn -0.0000 -0.0000 -1.0000
vn -0.0000 0.0000 1.0000
vn -1.0000 0.0000 -0.0000
vn 0.0000 1.0000 -0.0000
vn 1.0000 -0.0000 0.0000
vn -0.0000 -1.0000 0.0000
usemtl Material.001
s 1
f 1//1 2//1 3//1 4//1
f 5//2 6//2 7//2 8//2
f 1//3 5//3 8//3 2//3
f 2//4 8//4 7//4 3//4
f 3//5 7//5 6//5 4//5
f 5//6 1//6 4//6 6//6
