# Blender v2.77 (sub 0) OBJ File: 'table.blend'
# www.blender.org
mtllib table.mtl
o Cube_cube
v 65.359497 29.551424 -38.420998
v 65.359497 29.551424 19.904110
v -51.103027 29.551424 19.904106
v -51.103001 29.551424 -38.421009
v 65.359528 35.319370 -38.420986
v 65.359459 35.319370 19.904129
v -51.103039 35.319370 19.904102
v -51.103016 35.319370 -38.421001
v 65.359497 29.551424 -38.420998
v 65.359497 29.551424 19.904110
v -51.103027 29.551424 19.904106
v -51.103001 29.551424 -38.421009
v 65.359528 35.319370 -38.420986
v 65.359459 35.319370 19.904129
v -51.103039 35.319370 19.904102
v -51.103016 35.319370 -38.421001
v 65.359497 29.551424 -38.420998
v 65.359497 29.551424 19.904110
v -51.103027 29.551424 19.904106
v -51.103001 29.551424 -38.421009
v 65.359528 35.319370 -38.420986
v 65.359459 35.319370 19.904129
v -51.103039 35.319370 19.904102
v -51.103016 35.319370 -38.421001
v 65.359497 29.551424 -38.420998
v 65.359497 29.551424 19.904110
v -51.103027 29.551424 19.904106
v -51.103001 29.551424 -38.421009
v 65.359528 35.319370 -38.420986
v 65.359459 35.319370 19.904129
v -51.103039 35.319370 19.904102
v -51.103016 35.319370 -38.421001
v 65.359497 29.551424 -38.420998
v 65.359497 29.551424 19.904110
v -51.103027 29.551424 19.904106
v -51.103001 29.551424 -38.421009
v 65.359528 35.319370 -38.420986
v 65.359459 35.319370 19.904129
v -51.103039 35.319370 19.904102
v -51.103016 35.319370 -38.421001
v -51.103027 29.551424 19.904106
v -51.103001 29.551424 -38.421009
v -51.103039 35.319370 19.904102
v -51.103016 35.319370 -38.421001
v -51.103027 29.551424 19.904106
v -51.103001 29.551424 -38.421009
v -51.103039 35.319370 19.904102
v -51.103016 35.319370 -38.421001
v -51.103027 29.551424 19.904106
v -51.103001 29.551424 -38.421009
v -51.103039 35.319370 19.904102
v -51.103016 35.319370 -38.421001
v -51.103027 29.551424 19.904106
v -51.103001 29.551424 -38.421009
v -51.103039 35.319370 19.904102
v -51.103016 35.319370 -38.421001
v -51.103027 29.551424 19.904106
v -51.103001 29.551424 -38.421009
v -51.103039 35.319370 19.904102
v -51.103016 35.319370 -38.421001
v 65.359505 29.551424 -38.421005
v 65.359505 29.551424 19.904114
v -51.103035 29.551424 19.904106
v -51.103004 29.551424 -38.421013
v 65.359528 35.319370 -38.420990
v 65.359467 35.319370 19.904133
v -51.103046 35.319370 19.904102
v -51.103020 35.319370 -38.421005
v -59.247013 35.319370 19.904102
v -59.246990 35.319370 -38.421005
v 73.891312 35.319370 -38.420990
v 73.891251 35.319370 19.904133
v 65.359528 35.319370 -45.595436
v -51.103020 35.319370 -45.595451
v -59.246990 35.319370 -45.595451
v 73.891312 35.319370 -45.595436
v 65.359467 35.319370 26.884674
v -51.103046 35.319370 26.884647
v -59.247013 35.319370 26.884647
v 73.891251 35.319370 26.884674
v -51.103046 -3.183353 19.904102
v -59.247013 -3.183353 19.904102
v -59.246990 -3.183353 -38.421005
v -51.103020 -3.183353 -38.421005
v 65.359528 -3.183353 -38.420990
v 73.891312 -3.183353 -38.420990
v 73.891251 -3.183353 19.904133
v 65.359467 -3.183353 19.904133
v -59.246990 -3.183353 -45.595451
v -51.103020 -3.183353 -45.595451
v 65.359528 -3.183353 -45.595436
v 73.891312 -3.183353 -45.595436
v -51.103046 -3.183353 26.884647
v -59.247013 -3.183353 26.884647
v 73.891251 -3.183353 26.884674
v 65.359467 -3.183353 26.884674
vt 0.0000 0.0000
vt 1.0000 0.0000
vt 1.0000 1.0000
vt 0.0000 1.0000
vt 0.0000 0.0000
vt 1.0000 0.0000
vt 1.0000 1.0000
vt 0.0000 1.0000
vt 1.0000 0.0000
vt 1.0000 1.0000
vt 0.0000 1.0000
vt 0.0000 0.0000
vt 1.0000 0.0000
vt 0.0000 1.0000
vt 0.0000 0.0000
vt 1.0000 0.0000
vt 1.0000 1.0000
vt 0.0000 1.0000
vt 1.0000 0.0000
vt 1.0000 1.0000
vt 0.0000 1.0000
vt 0.0000 0.0000
vt 1.0000 0.0000
vt 1.0000 1.0000
vt 0.0000 1.0000
vt 0.0000 0.0000
vt 1.0000 0.0000
vt 1.0000 1.0000
vt 0.0000 1.0000
vt 1.0000 0.0000
vt 1.0000 1.0000
vt 0.0000 1.0000
vt 0.0000 0.0000
vt 1.0000 0.0000
vt 0.0000 1.0000
vt 0.0000 0.0000
vt 1.0000 0.0000
vt 1.0000 1.0000
vt 0.0000 1.0000
vt 1.0000 0.0000
vt 1.0000 1.0000
vt 0.0000 1.0000
vt 0.0000 0.0000
vt 1.0000 0.0000
vt 1.0000 1.0000
vt 0.0000 1.0000
vt 0.0000 0.0000
vt 1.0000 0.0000
vt 1.0000 1.0000
vt 0.0000 1.0000
vt 1.0000 0.0000
vt 1.0000 1.0000
vt 0.0000 1.0000
vt 0.0000 0.0000
vt 1.0000 0.0000
vt 0.0000 1.0000
vt 0.0000 0.0000
vt 1.0000 1.0000
vt 0.0000 1.0000
vt 1.0000 0.0000
vt 1.0000 1.0000
vt 0.0000 1.0000
vt 0.0000 0.0000
vt 1.0000 0.0000
vt 1.0000 1.0000
vt 0.0000 1.0000
vt 0.0000 0.0000
vt 1.0000 0.0000
vt 1.0000 1.0000
vt 0.0000 1.0000
vt 1.0000 0.0000
vt 1.0000 1.0000
vt 0.0000 1.0000
vt 0.0000 0.0000
vt 1.0000 0.0000
vt 0.0000 1.0000
vt 0.0000 0.0000
vt 1.0000 0.0000
vt 1.0000 1.0000
vt 0.0000 1.0000
vt 1.0000 0.0000
vt 1.0000 1.0000
vt 0.0000 1.0000
vt 0.0000 0.0000
vt 1.0000 1.0000
vt 0.0000 1.0000
vt 0.0000 0.0000
vt 1.0000 0.0000
vt 1.0000 1.0000
vt 0.0000 1.0000
vt 1.0000 0.0000
vt 1.0000 1.0000
vt 0.0000 1.0000
vt 0.0000 0.0000
vt 1.0000 0.0000
vt 0.0000 1.0000
vt 0.0000 0.0000
vt 1.0000 1.0000
vt 0.0000 1.0000
vt 1.0000 0.0000
vt 1.0000 1.0000
vt 0.0000 1.0000
vt 0.0000 0.0000
vt 1.0000 1.0000
vt 0.0000 1.0000
vt 0.0000 0.0000
vt 1.0000 1.0000
vt 0.0000 1.0000
vt 0.0000 0.0000
vt 1.0000 1.0000
vt 0.0000 1.0000
vt 0.0000 0.0000
vt 1.0000 0.0000
vt 1.0000 1.0000
vt 0.0000 1.0000
vt 0.0000 0.0000
vt 1.0000 1.0000
vt 0.0000 1.0000
vt 0.0000 0.0000
vt 1.0000 1.0000
vt 0.0000 1.0000
vt 0.0000 0.0000
vt 1.0000 0.0000
vt 0.0000 0.0000
vt 1.0000 0.0000
vt 1.0000 1.0000
vt 0.0000 1.0000
vt 0.0000 0.0000
vt 1.0000 0.0000
vt 1.0000 1.0000
vt 0.0000 0.0000
vt 1.0000 0.0000
vt 0.0000 0.0000
vt 1.0000 0.0000
vt 1.0000 1.0000
vt 0.0000 1.0000
vt 0.0000 0.0000
vt 1.0000 0.0000
vt 1.0000 1.0000
vt 0.0000 1.0000
vt 0.0000 0.0000
vt 1.0000 0.0000
vt 1.0000 1.0000
vt 0.0000 1.0000
vt 1.0000 0.0000
vt 1.0000 1.0000
vt 0.0000 1.0000
vt 0.0000 0.0000
vt 1.0000 0.0000
vt 0.0000 1.0000
vt 0.0000 0.0000
vt 1.0000 0.0000
vt 1.0000 1.0000
vt 1.0000 0.0000
vt 1.0000 1.0000
vt 0.0000 1.0000
vt 0.0000 0.0000
vt 0.0000 1.0000
vt 0.0000 0.0000
vt 1.0000 1.0000
vt 0.0000 0.0000
vt 1.0000 1.0000
vt 0.0000 1.0000
vt 0.0000 0.0000
vt 1.0000 0.0000
vt 1.0000 1.0000
vt 0.0000 1.0000
vt 0.0000 0.0000
vt 0.0000 1.0000
vt 0.0000 0.0000
vt 1.0000 1.0000
vt 0.0000 0.0000
vt 1.0000 0.0000
vt 1.0000 1.0000
vt 0.0000 1.0000
vt 0.0000 0.0000
vt 1.0000 1.0000
vt 0.0000 1.0000
vt 0.0000 0.0000
vt 0.0000 1.0000
vt 0.0000 0.0000
vt 1.0000 1.0000
vt 0.0000 1.0000
vt 0.0000 0.0000
vt 1.0000 1.0000
vt 0.0000 1.0000
vt 0.0000 0.0000
vt 1.0000 1.0000
vt 0.0000 1.0000
vt 0.0000 0.0000
vt 1.0000 0.0000
vt 1.0000 1.0000
vt 0.0000 1.0000
vt 1.0000 1.0000
vt 0.0000 1.0000
vt 0.0000 0.0000
vt 1.0000 1.0000
vt 0.0000 1.0000
vt 0.0000 0.0000
vt 1.0000 0.0000
vt 1.0000 1.0000
vt 0.0000 1.0000
vt 0.0000 0.0000
vt 1.0000 1.0000
vt 0.0000 1.0000
vt 0.0000 0.0000
vt 1.0000 0.0000
vt 1.0000 1.0000
vt 0.0000 1.0000
vt 0.0000 0.0000
vt 1.0000 0.0000
vt 0.0000 0.0000
vt 1.0000 0.0000
vt 1.0000 1.0000
vt 0.0000 1.0000
vt 0.0000 0.0000
vt 1.0000 0.0000
vt 1.0000 1.0000
vt 1.0000 0.0000
vt 1.0000 1.0000
vt 0.0000 1.0000
vt 0.0000 0.0000
vt 1.0000 0.0000
vt 1.0000 1.0000
vt 0.0000 1.0000
vt 0.0000 0.0000
vt 1.0000 0.0000
vt 1.0000 1.0000
vt 0.0000 1.0000
vt 0.0000 0.0000
vt 1.0000 0.0000
vt 1.0000 1.0000
vt 0.0000 1.0000
vt 0.0000 0.0000
vt 1.0000 0.0000
vt 1.0000 1.0000
vt 0.0000 1.0000
vt 0.0000 0.0000
vt 1.0000 1.0000
vt 0.0000 1.0000
vt 0.0000 0.0000
vt 1.0000 0.0000
vt 0.0000 1.0000
vt 1.0000 0.0000
vt 0.0000 1.0000
vt 1.0000 0.0000
vt 1.0000 1.0000
vt 0.0000 1.0000
vt 0.0000 0.0000
vt 1.0000 1.0000
vt 0.0000 0.0000
vt 1.0000 0.0000
vt 1.0000 1.0000
vt 1.0000 0.0000
vt 0.0000 1.0000
vt 0.0000 1.0000
vt 0.0000 1.0000
vt 0.0000 1.0000
vt 0.0000 1.0000
vn 0.0000 1.0000 -0.0000
vn 0.0000 -1.0000 -0.0000
vn -1.0000 0.0000 -0.0000
vn 0.0000 0.0000 -1.0000
vn 0.0000 0.0000 1.0000
vn 1.0000 0.0000 0.0000
usemtl Material
s off
f 1/1/1 4/2/1 3/3/1 2/4/1
f 5/5/2 6/6/2 7/7/2 8/8/2
f 1/1/3 2/9/3 6/10/3 5/11/3
f 2/12/4 3/13/4 7/7/4 6/14/4
f 35/15/5 36/16/5 58/17/5 57/18/5
f 5/5/5 8/19/5 4/20/5 1/21/5
f 9/22/1 12/23/1 11/24/1 10/25/1
f 13/26/2 14/27/2 15/28/2 16/29/2
f 9/22/3 10/30/3 14/31/3 13/32/3
f 10/33/4 11/34/4 15/28/4 14/35/4
f 16/36/5 15/37/5 47/38/5 48/39/5
f 13/26/5 16/40/5 12/41/5 9/42/5
f 17/43/1 20/44/1 19/45/1 18/46/1
f 21/47/2 22/48/2 23/49/2 24/50/2
f 17/43/3 18/51/3 22/52/3 21/53/3
f 18/54/4 19/55/4 23/49/4 22/56/4
f 23/57/5 19/55/5 49/58/5 51/59/5
f 21/47/5 24/60/5 20/61/5 17/62/5
f 25/63/1 28/64/1 27/65/1 26/66/1
f 29/67/2 30/68/2 31/69/2 32/70/2
f 25/63/3 26/71/3 30/72/3 29/73/3
f 26/74/4 27/75/4 31/69/4 30/76/4
f 40/77/5 39/78/5 59/79/5 60/80/5
f 29/67/5 32/81/5 28/82/5 25/83/5
f 33/84/1 36/16/1 35/85/1 34/86/1
f 37/87/2 38/88/2 39/89/2 40/90/2
f 33/84/3 34/91/3 38/92/3 37/93/3
f 34/94/4 35/95/4 39/89/4 38/96/4
f 4/97/5 8/19/5 44/98/5 42/99/5
f 37/87/5 40/100/5 36/101/5 33/102/5
f 19/103/5 20/44/5 50/104/5 49/105/5
f 7/106/5 3/13/5 41/107/5 43/108/5
f 28/109/5 32/81/5 56/110/5 54/111/5
f 24/112/5 23/113/5 51/114/5 52/115/5
f 3/116/5 4/2/5 42/117/5 41/118/5
f 31/119/5 27/75/5 53/120/5 55/121/5
f 41/122/6 42/123/6 44/98/6 43/108/6
f 45/124/6 46/125/6 48/126/6 47/127/6
f 49/128/6 50/129/6 52/130/6 51/59/6
f 53/131/6 54/132/6 56/110/6 55/121/6
f 57/133/6 58/134/6 60/135/6 59/136/6
f 61/137/2 62/138/2 63/139/2 64/140/2
f 65/141/1 68/142/1 67/143/1 66/144/1
f 61/137/6 65/145/6 66/146/6 62/147/6
f 62/148/5 66/149/5 67/143/5 63/150/5
f 63/151/3 67/152/3 68/153/3 64/140/3
f 65/141/4 61/154/4 64/155/4 68/156/4
f 20/157/5 24/60/5 52/130/5 50/158/5
f 39/159/5 35/95/5 57/160/5 59/136/5
f 11/161/5 12/23/5 46/162/5 45/163/5
f 32/164/5 31/165/5 55/166/5 56/167/5
f 36/168/5 40/100/5 60/135/5 58/169/5
f 15/170/5 11/34/5 45/171/5 47/127/5
f 8/172/5 7/173/5 43/174/5 44/175/5
f 27/176/5 28/64/5 54/177/5 53/178/5
f 12/179/5 16/40/5 48/126/5 46/180/5
f 68/181/2 67/152/2 69/182/2 70/183/2
f 66/184/2 65/145/2 71/185/2 72/186/2
f 74/187/6 68/142/6 84/188/6 90/189/6
f 79/190/3 69/191/3 82/192/3 94/193/3
f 65/141/2 68/142/2 74/194/2 73/195/2
f 71/196/5 65/145/5 85/197/5 86/198/5
f 70/199/3 75/200/3 89/201/3 83/202/3
f 67/203/2 66/149/2 77/204/2 78/205/2
f 86/206/2 85/207/2 91/208/2 92/209/2
f 84/210/2 83/211/2 89/201/2 90/189/2
f 88/212/2 87/213/2 95/214/2 96/215/2
f 82/216/2 81/217/2 93/218/2 94/193/2
f 66/184/4 72/219/4 87/220/4 88/221/4
f 78/222/5 79/223/5 94/224/5 93/225/5
f 75/226/4 74/227/4 90/228/4 89/229/4
f 80/230/5 77/231/5 96/232/5 95/233/5
f 73/234/4 76/235/4 92/236/4 91/237/4
f 69/238/4 67/152/4 81/239/4 82/240/4
f 72/241/6 80/242/6 95/214/6 87/243/6
f 65/141/3 73/244/3 91/208/3 85/245/3
f 68/181/5 70/246/5 83/247/5 84/248/5
f 77/249/3 66/149/3 88/250/3 96/215/3
f 76/251/6 71/252/6 86/253/6 92/209/6
f 67/203/6 78/254/6 93/218/6 81/255/6
f 80/230/1 72/219/1 66/146/1 77/256/1
f 73/234/1 65/145/1 71/185/1 76/257/1
f 78/222/1 67/152/1 69/182/1 79/258/1
f 75/226/1 70/246/1 68/153/1 74/259/1
